<?xml version="1.0" encoding="UTF-8" standalone="no"?>
<svg
   width="435.25928"
   height="132"
   viewBox="0 0 435.25928 132"
   fill="none"
   version="1.1"
   id="svg60"
   sodipodi:docname="logos.svg"
   xmlns:inkscape="http://www.inkscape.org/namespaces/inkscape"
   xmlns:sodipodi="http://sodipodi.sourceforge.net/DTD/sodipodi-0.dtd"
   xmlns="http://www.w3.org/2000/svg"
   xmlns:svg="http://www.w3.org/2000/svg">
  <defs
     id="defs64" />
  <sodipodi:namedview
     id="namedview62"
     pagecolor="#ffffff"
     bordercolor="#000000"
     borderopacity="0.25"
     inkscape:showpageshadow="2"
     inkscape:pageopacity="0.0"
     inkscape:pagecheckerboard="0"
     inkscape:deskcolor="#d1d1d1"
     showgrid="false" />
  <rect
     width="430"
     height="132"
     fill="#000000"
     fill-opacity="0.01"
     id="rect52"
     x="0"
     y="0" />
  <path
     d="M 104.032,58.52 C 83.001,45.925 48.314,44.765 28.237,50.908 c -0.769,0.232 -1.577,0.31 -2.377,0.23 -0.799,-0.08 -1.575,-0.318 -2.282,-0.699 -0.707,-0.381 -1.332,-0.897 -1.838,-1.52 -0.506,-0.623 -0.884,-1.339 -1.111,-2.108 -0.475,-1.556 -0.314,-3.236 0.447,-4.674 0.761,-1.438 2.061,-2.518 3.616,-3.004 23.044,-7.057 61.358,-5.693 85.57,8.8 2.9,1.738 3.853,5.511 2.133,8.431 -0.403,0.694 -0.94,1.301 -1.58,1.785 -0.64,0.485 -1.371,0.838 -2.149,1.039 -0.778,0.2 -1.588,0.245 -2.384,0.13 -0.795,-0.115 -1.56,-0.386 -2.25,-0.798 z m -0.689,18.656 c -0.345,0.573 -0.8,1.071 -1.34,1.467 -0.54,0.395 -1.153,0.68 -1.804,0.837 -0.65,0.157 -1.326,0.183 -1.987,0.078 C 97.55,79.452 96.917,79.216 96.348,78.865 78.817,67.991 52.08,64.845 31.335,71.198 c -0.642,0.193 -1.316,0.258 -1.983,0.19 -0.667,-0.067 -1.314,-0.266 -1.903,-0.584 -0.59,-0.318 -1.111,-0.749 -1.533,-1.268 -0.422,-0.52 -0.737,-1.118 -0.926,-1.759 -0.392,-1.297 -0.256,-2.696 0.378,-3.893 0.635,-1.198 1.717,-2.097 3.012,-2.504 23.694,-7.254 53.155,-3.74 73.293,8.745 2.387,1.485 3.142,4.642 1.67,7.051 z M 95.361,95.09 c -0.274,0.459 -0.637,0.859 -1.068,1.177 -0.431,0.317 -0.92,0.546 -1.441,0.673 -0.52,0.127 -1.06,0.15 -1.589,0.066 -0.53,-0.084 -1.037,-0.271 -1.492,-0.552 C 74.445,87.01 55.167,84.876 32.454,90.112 c -0.523,0.118 -1.064,0.132 -1.592,0.041 -0.528,-0.091 -1.033,-0.286 -1.486,-0.573 -0.452,-0.286 -0.843,-0.66 -1.151,-1.098 -0.307,-0.438 -0.524,-0.933 -0.639,-1.455 -0.245,-1.056 -0.06,-2.166 0.513,-3.087 0.574,-0.92 1.489,-1.576 2.547,-1.825 24.852,-5.731 46.17,-3.261 63.37,7.337 0.922,0.575 1.58,1.488 1.832,2.543 0.251,1.056 0.076,2.167 -0.487,3.095 z M 65.443,0.187 c -36.038,0 -65.245,29.458 -65.245,65.797 0,36.344 29.207,65.796 65.245,65.796 36.032,0 65.244,-29.452 65.244,-65.796 0,-36.339 -29.212,-65.797 -65.25,-65.797 z M 177.7,60.929 c -11.262,-2.711 -13.269,-4.609 -13.269,-8.607 0,-3.773 3.528,-6.314 8.765,-6.314 5.078,0 10.116,1.93 15.398,5.901 0.16,0.121 0.358,0.165 0.556,0.138 0.098,-0.016 0.191,-0.05 0.274,-0.102 0.083,-0.052 0.155,-0.12 0.212,-0.201 l 5.501,-7.821 c 0.109,-0.155 0.155,-0.345 0.13,-0.533 -0.026,-0.187 -0.121,-0.358 -0.267,-0.479 -6.285,-5.087 -13.364,-7.557 -21.638,-7.557 -12.162,0 -20.657,7.359 -20.657,17.892 0,11.297 7.332,15.29 19.995,18.381 10.778,2.502 12.597,4.603 12.597,8.354 0,4.153 -3.677,6.738 -9.598,6.738 -6.577,0 -11.941,-2.233 -17.939,-7.475 -0.073,-0.065 -0.159,-0.115 -0.252,-0.146 -0.093,-0.031 -0.191,-0.043 -0.289,-0.036 -0.098,0.008 -0.193,0.035 -0.28,0.081 -0.087,0.045 -0.164,0.108 -0.226,0.184 l -6.169,7.403 c -0.125,0.147 -0.188,0.338 -0.175,0.531 0.014,0.193 0.102,0.374 0.247,0.503 6.985,6.286 15.568,9.603 24.83,9.603 13.109,0 21.577,-7.222 21.577,-18.398 0,-9.449 -5.596,-14.674 -19.323,-18.04 z m 58.491,12.661 c 0,7.975 -4.873,13.547 -11.852,13.547 -6.891,0 -12.095,-5.819 -12.095,-13.547 0,-7.722 5.198,-13.541 12.1,-13.541 6.864,0 11.847,5.693 11.847,13.541 z m -9.515,-23.87 c -5.678,0 -10.342,2.261 -14.184,6.886 v -5.203 c 0.001,-0.196 -0.075,-0.385 -0.212,-0.525 -0.138,-0.14 -0.325,-0.22 -0.521,-0.223 H 201.67 c -0.098,10e-4 -0.194,0.021 -0.284,0.059 -0.09,0.038 -0.172,0.093 -0.241,0.162 -0.068,0.07 -0.122,0.152 -0.159,0.242 -0.037,0.091 -0.055,0.188 -0.055,0.285 v 57.827 c 0,0.413 0.331,0.748 0.739,0.748 h 10.089 c 0.196,-0.003 0.383,-0.083 0.521,-0.223 0.137,-0.14 0.213,-0.329 0.212,-0.525 V 90.976 c 3.848,4.35 8.506,6.473 14.184,6.473 10.557,0 21.241,-8.195 21.241,-23.859 0,-15.669 -10.684,-23.87 -21.241,-23.87 z m 48.634,37.499 c -7.233,0 -12.679,-5.857 -12.679,-13.629 0,-7.799 5.259,-13.464 12.514,-13.464 7.277,0 12.762,5.863 12.762,13.64 0,7.794 -5.292,13.453 -12.597,13.453 z m 0,-37.493 c -13.594,0 -24.245,10.56 -24.245,24.035 0,13.332 10.579,23.782 24.08,23.782 13.639,0 24.322,-10.522 24.322,-23.953 0,-13.381 -10.606,-23.87 -24.157,-23.87 z m 53.188,0.929 h -11.097 v -11.44 c 10e-4,-0.098 -0.017,-0.195 -0.053,-0.285 -0.037,-0.091 -0.091,-0.174 -0.16,-0.243 -0.068,-0.07 -0.15,-0.125 -0.241,-0.163 -0.09,-0.038 -0.187,-0.057 -0.285,-0.057 h -10.088 c -0.196,0.003 -0.382,0.082 -0.52,0.221 -0.137,0.139 -0.214,0.326 -0.214,0.522 v 11.445 h -4.851 c -0.097,10e-4 -0.194,0.021 -0.284,0.059 -0.089,0.038 -0.171,0.093 -0.239,0.163 -0.068,0.069 -0.122,0.152 -0.158,0.242 -0.036,0.09 -0.054,0.187 -0.052,0.284 v 8.745 c 0,0.407 0.331,0.743 0.733,0.743 h 4.851 v 22.621 c 0,9.141 4.51,13.778 13.407,13.778 3.617,0 6.616,-0.754 9.449,-2.376 0.114,-0.065 0.209,-0.159 0.275,-0.272 0.065,-0.113 0.1,-0.241 0.1,-0.372 v -8.327 c 0,-0.127 -0.033,-0.251 -0.094,-0.362 -0.062,-0.11 -0.151,-0.203 -0.258,-0.27 -0.107,-0.067 -0.229,-0.105 -0.354,-0.11 -0.126,-0.006 -0.251,0.02 -0.363,0.077 -1.946,0.99 -3.821,1.441 -5.921,1.441 -3.236,0 -4.686,-1.485 -4.686,-4.802 V 60.885 h 11.103 c 0.098,-10e-4 0.194,-0.021 0.284,-0.059 0.09,-0.038 0.172,-0.093 0.241,-0.162 0.068,-0.07 0.122,-0.152 0.159,-0.242 0.037,-0.091 0.055,-0.187 0.055,-0.285 v -8.745 c 0,-0.097 -0.018,-0.194 -0.055,-0.284 -0.037,-0.09 -0.091,-0.172 -0.16,-0.241 -0.068,-0.069 -0.15,-0.123 -0.24,-0.161 -0.09,-0.037 -0.187,-0.056 -0.284,-0.056 z m 38.672,0.044 v -1.402 c 0,-4.136 1.572,-5.984 5.1,-5.984 2.1,0 3.793,0.423 5.683,1.061 0.112,0.035 0.23,0.044 0.345,0.025 0.115,-0.019 0.224,-0.065 0.317,-0.135 0.096,-0.069 0.174,-0.16 0.228,-0.265 0.053,-0.105 0.081,-0.222 0.081,-0.34 V 35.09 c 0.001,-0.159 -0.049,-0.315 -0.144,-0.444 -0.094,-0.129 -0.227,-0.224 -0.38,-0.271 -2.714,-0.833 -5.54,-1.242 -8.379,-1.21 -9.317,0 -14.246,5.291 -14.246,15.29 v 2.156 h -4.845 c -0.197,0.001 -0.385,0.08 -0.523,0.219 -0.138,0.14 -0.216,0.328 -0.216,0.524 v 8.789 c 0,0.412 0.331,0.748 0.739,0.748 h 4.851 v 34.892 c 0,0.412 0.325,0.742 0.733,0.742 h 10.089 c 0.402,0 0.733,-0.33 0.733,-0.742 V 60.885 h 9.421 l 14.427,34.881 c -1.637,3.669 -3.252,4.4 -5.446,4.4 -1.781,0 -3.65,-0.539 -5.568,-1.595 -0.089,-0.048 -0.186,-0.077 -0.287,-0.087 -0.1,-0.009 -0.202,0.002 -0.298,0.032 -0.096,0.034 -0.184,0.087 -0.259,0.156 -0.075,0.069 -0.135,0.153 -0.176,0.246 l -3.418,7.562 c -0.08,0.17 -0.091,0.364 -0.033,0.543 0.058,0.179 0.182,0.328 0.347,0.42 3.277,1.875 7,2.836 10.778,2.783 7.442,0 11.56,-3.498 15.193,-12.914 l 17.498,-45.601 c 0.044,-0.113 0.06,-0.235 0.046,-0.356 -0.013,-0.121 -0.056,-0.236 -0.123,-0.337 -0.067,-0.099 -0.157,-0.181 -0.263,-0.238 -0.106,-0.056 -0.224,-0.086 -0.344,-0.086 h -10.502 c -0.154,0 -0.304,0.049 -0.43,0.138 -0.125,0.09 -0.22,0.216 -0.27,0.362 L 396.874,82.181 385.093,51.172 c -0.052,-0.141 -0.146,-0.262 -0.269,-0.347 -0.124,-0.086 -0.27,-0.132 -0.42,-0.131 H 367.17 Z m -22.42,-0.044 h -10.089 c -0.196,0.003 -0.383,0.083 -0.521,0.223 -0.137,0.14 -0.213,0.329 -0.212,0.525 v 44.38 c 0,0.412 0.331,0.742 0.739,0.742 h 10.088 c 0.403,0 0.734,-0.33 0.734,-0.742 V 51.398 c 0,-0.196 -0.078,-0.384 -0.217,-0.524 -0.138,-0.139 -0.326,-0.218 -0.522,-0.219 z m -4.995,-20.207 c -1.928,0.012 -3.772,0.786 -5.129,2.154 -1.356,1.367 -2.112,3.215 -2.104,5.139 -0.005,0.953 0.179,1.898 0.539,2.781 0.362,0.883 0.893,1.686 1.565,2.364 0.673,0.678 1.472,1.217 2.353,1.586 0.881,0.37 1.826,0.562 2.782,0.568 1.929,-0.012 3.774,-0.787 5.13,-2.156 1.357,-1.369 2.113,-3.218 2.103,-5.143 0,-4.031 -3.242,-7.293 -7.233,-7.293 z m 88.784,24.624 h -1.847 v 2.376 h 1.847 c 0.921,0 1.472,-0.457 1.472,-1.188 0,-0.776 -0.551,-1.188 -1.472,-1.188 z m 1.196,3.388 2.013,2.838 h -1.698 l -1.803,-2.602 h -1.555 v 2.602 h -1.416 v -7.519 h 3.318 c 1.731,0 2.872,0.897 2.872,2.398 0.025,0.522 -0.135,1.036 -0.452,1.453 -0.316,0.417 -0.768,0.711 -1.279,0.83 z m -1.571,-7.178 c -3.638,0 -6.389,2.915 -6.389,6.485 0,3.564 2.734,6.44 6.351,6.44 3.638,0 6.395,-2.915 6.395,-6.484 0,-3.564 -2.74,-6.441 -6.357,-6.441 z m -0.038,13.64 c -0.938,-0.002 -1.866,-0.189 -2.731,-0.551 -0.865,-0.361 -1.649,-0.889 -2.309,-1.554 -0.659,-0.665 -1.18,-1.454 -1.533,-2.321 -0.353,-0.866 -0.53,-1.794 -0.522,-2.729 0,-3.927 3.142,-7.2 7.133,-7.2 0.938,0.002 1.866,0.189 2.731,0.551 0.865,0.361 1.649,0.889 2.309,1.554 0.659,0.665 1.18,1.454 1.533,2.321 0.353,0.866 0.53,1.794 0.522,2.73 0,3.927 -3.142,7.205 -7.133,7.205 z"
     fill="#1ed760"
     id="path54" />
</svg>
